<svg preserveAspectRatio="none" width="100%" height="100%" overflow="visible" style="display: block;" viewBox="0 0 94.4297 139.446" fill="none" xmlns="http://www.w3.org/2000/svg">
<g id="Group 60">
<path id="Vector" d="M48.2666 37.3662C56.9449 37.393 65.2567 40.8598 71.374 47.0029C77.4914 53.1462 80.914 61.4633 80.8887 70.124V70.1279C80.8887 80.047 77.4283 88.4302 70.8955 94.6621L70.8945 94.6631C68.5083 96.9406 65.3208 99.8171 62.7617 102.98C60.2177 106.125 58.0733 109.812 58.0732 113.778V117.971H38.2578V113.778C38.2578 109.778 36.108 106.071 33.5576 102.921C30.992 99.7525 27.804 96.8952 25.4287 94.6562V94.6553L24.8398 94.085C18.8402 88.0993 15.4424 79.3897 15.4424 70.1279V69.9229C15.4705 61.2621 18.9434 52.9659 25.0986 46.8604C31.2539 40.7548 39.588 37.3395 48.2666 37.3662Z" fill="var(--fill-0, #1A1A1A)" stroke="var(--stroke-0, #E5E5E5)" stroke-width="3"/>
<path id="Path 2547" d="M55.771 130.523H40.5608C40.2069 130.523 39.8676 130.383 39.6174 130.133C39.3671 129.883 39.2266 129.544 39.2266 129.191C39.2266 128.838 39.3671 128.499 39.6174 128.249C39.8676 128 40.2069 127.859 40.5608 127.859H55.771C56.1249 127.859 56.4642 128 56.7145 128.249C56.9647 128.499 57.1052 128.838 57.1052 129.191C57.1052 129.544 56.9647 129.883 56.7145 130.133C56.4642 130.383 56.1249 130.523 55.771 130.523V130.523Z" fill="var(--fill-0, #1A1A1A)"/>
<path id="Vector_2" d="M49.8011 139.446H46.5277C45.3907 139.447 44.275 139.138 43.3004 138.554C43.156 138.47 43.0441 138.339 42.9827 138.184C42.9213 138.029 42.914 137.857 42.962 137.698C43.0059 137.533 43.1031 137.388 43.2384 137.285C43.3736 137.182 43.5393 137.126 43.7096 137.127H52.6193C52.7896 137.126 52.9553 137.182 53.0906 137.285C53.2258 137.388 53.323 137.533 53.3669 137.698C53.4149 137.857 53.4076 138.029 53.3462 138.184C53.2848 138.339 53.1729 138.47 53.0284 138.554C52.0539 139.138 50.9382 139.447 49.8011 139.446V139.446Z" fill="var(--fill-0, #808080)"/>
<path id="Vector_3" d="M55.7728 134.73L40.4723 134.729L40.4249 134.627C40.3798 134.441 40.3779 134.246 40.4196 134.059C40.4612 133.872 40.5451 133.696 40.665 133.546C40.7866 133.392 40.9416 133.268 41.1183 133.183C41.295 133.097 41.4889 133.053 41.6852 133.054H54.6426C54.8389 133.053 55.0328 133.097 55.2095 133.183C55.3863 133.268 55.5413 133.392 55.6628 133.546C55.7817 133.694 55.8654 133.867 55.9075 134.052C55.9496 134.237 55.949 134.429 55.9059 134.614L55.8818 134.717L55.7728 134.73Z" fill="var(--fill-0, #808080)"/>
<path id="Path 2548" d="M1.26758 26.5098C1.50843 26.4923 1.74666 26.5691 1.93066 26.7246V26.7256L13.3887 36.709C13.53 36.8321 13.6309 36.9954 13.6768 37.1768C13.7226 37.3582 13.7114 37.5494 13.6455 37.7246C13.5797 37.8997 13.4618 38.0505 13.3076 38.1572C13.1534 38.2639 12.97 38.3203 12.7822 38.3203L12.7812 38.3213C12.5586 38.3215 12.3431 38.241 12.1758 38.0947V38.0938L0.717773 28.1104C0.538237 27.9493 0.429226 27.7246 0.414062 27.4844C0.39887 27.2428 0.479994 27.0048 0.639648 26.8223C0.799321 26.6397 1.02507 26.5274 1.26758 26.5098Z" fill="var(--fill-0, white)" stroke="var(--stroke-0, white)" stroke-width="0.824436"/>
<path id="Path 2549" d="M93.1621 26.5078C93.4046 26.5255 93.6304 26.6377 93.79 26.8203C93.9497 27.0029 94.0308 27.2408 94.0156 27.4824C94.0005 27.7226 93.8914 27.9474 93.7119 28.1084L82.2539 38.0918L82.2529 38.0928C82.0858 38.2392 81.8711 38.3203 81.6484 38.3203C81.4605 38.3204 81.2764 38.2629 81.1221 38.1562C80.9679 38.0496 80.85 37.8987 80.7842 37.7236C80.7183 37.5484 80.7081 37.3572 80.7539 37.1758C80.7998 36.9944 80.8997 36.8312 81.041 36.708L92.498 26.7227C92.6821 26.5668 92.921 26.4904 93.1621 26.5078Z" fill="var(--fill-0, white)" stroke="var(--stroke-0, white)" stroke-width="0.824436"/>
<path id="Path 2550" d="M59.5724 125.796H36.7571C36.4032 125.796 36.0638 125.655 35.8136 125.405C35.5634 125.156 35.4229 124.817 35.4229 124.464C35.4229 124.11 35.5634 123.772 35.8136 123.522C36.0638 123.272 36.4032 123.132 36.7571 123.132H59.5724C59.9263 123.132 60.2656 123.272 60.5158 123.522C60.7661 123.772 60.9066 124.11 60.9066 124.464C60.9066 124.817 60.7661 125.156 60.5158 125.405C60.2656 125.655 59.9263 125.796 59.5724 125.796V125.796Z" fill="var(--fill-0, #1A1A1A)"/>
<path id="Vector_4" d="M47.6044 91.0031L42.8599 119.47H40.1514L44.9706 90.5663C45.0286 90.2177 45.223 89.9063 45.511 89.7007C45.799 89.4952 46.157 89.4122 46.5063 89.4702C46.8556 89.5281 47.1675 89.7222 47.3734 90.0096C47.5793 90.2971 47.6624 90.6545 47.6044 91.0031V91.0031Z" fill="var(--fill-0, #E6E6E6)"/>
<path id="Vector_5" d="M56.722 119.47H54.0136L49.269 91.0031C49.211 90.6545 49.2941 90.2971 49.5 90.0096C49.7059 89.7222 50.0178 89.5281 50.3671 89.4702C50.7164 89.4122 51.0744 89.4952 51.3624 89.7007C51.6504 89.9063 51.8448 90.2177 51.9028 90.5663L56.722 119.47Z" fill="var(--fill-0, #E6E6E6)"/>
<path id="Path 2551" d="M39.4932 90.0516C39.4932 89.6984 39.6337 89.3596 39.8839 89.1098C40.1342 88.86 40.4735 88.7197 40.8274 88.7197H55.502C55.8559 88.7197 56.1953 88.86 56.4455 89.1098C56.6957 89.3596 56.8363 89.6984 56.8363 90.0516C56.8363 90.4048 56.6957 90.7436 56.4455 90.9933C56.1953 91.2431 55.8559 91.3834 55.502 91.3834H40.8274C40.4735 91.3834 40.1342 91.2431 39.8839 90.9933C39.6337 90.7436 39.4932 90.4048 39.4932 90.0516V90.0516Z" fill="var(--fill-0, #E6E6E6)"/>
<path id="Path 2553" d="M48.1651 0.412203C48.4098 0.412203 48.6446 0.509287 48.8174 0.681734C48.9902 0.854253 49.0869 1.08845 49.0869 1.33212V24.1065C49.0869 24.3502 48.9902 24.5844 48.8174 24.7569C48.6446 24.9294 48.4098 25.0265 48.1651 25.0265C47.9204 25.0264 47.6855 24.9294 47.5127 24.7569C47.3399 24.5844 47.2432 24.3502 47.2432 24.1065V1.33212C47.2432 1.0885 47.3399 0.854249 47.5127 0.681734C47.6855 0.509244 47.9204 0.412267 48.1651 0.412203Z" fill="var(--fill-0, white)" stroke="var(--stroke-0, white)" stroke-width="0.824436"/>
</g>
</svg>
